<?xml version="1.0" encoding="UTF-8" standalone="no"?>
<!DOCTYPE svg PUBLIC "-//W3C//DTD SVG 1.1//EN" "http://www.w3.org/Graphics/SVG/1.1/DTD/svg11.dtd">
<svg width="100%" height="100%" viewBox="0 0 473 483" version="1.1" xmlns="http://www.w3.org/2000/svg" xmlns:xlink="http://www.w3.org/1999/xlink" xml:space="preserve" xmlns:serif="http://www.serif.com/" style="fill-rule:evenodd;clip-rule:evenodd;stroke-linejoin:round;stroke-miterlimit:2;">
    <g transform="matrix(1,0,0,1,-948.977,-1869.95)">
        <g transform="matrix(2.30787,0,0,2.72757,74.4579,-2354.54)">
            <g id="Name--gradient-" serif:id="Name (gradient)" transform="matrix(1.86439,0,0,1.57751,102.38,1156.99)">
                <path d="M203.232,360.428C192.932,360.428 183.607,358.003 175.257,353.153C166.907,348.303 160.332,341.628 155.532,333.128C150.732,324.628 148.332,315.128 148.332,304.628C148.332,294.028 150.732,284.453 155.532,275.903C160.332,267.353 166.907,260.628 175.257,255.728C183.607,250.828 192.932,248.378 203.232,248.378C213.532,248.378 222.857,250.828 231.207,255.728C239.557,260.628 246.132,267.353 250.932,275.903C255.732,284.453 258.132,294.028 258.132,304.628C258.132,315.128 255.732,324.628 250.932,333.128C246.132,341.628 239.557,348.303 231.207,353.153C222.857,358.003 213.532,360.428 203.232,360.428ZM203.232,339.128C233.909,339.128 235.932,335.304 235.932,304.628C235.932,273.951 233.909,269.678 203.232,269.678C172.045,269.678 170.532,273.013 170.532,304.628C170.532,335.815 172.045,339.128 203.232,339.128Z" style="fill:url(#_Linear1);fill-rule:nonzero;"/>
                <path d="M203.232,360.428C192.932,360.428 183.607,358.003 175.257,353.153C166.907,348.303 160.332,341.628 155.532,333.128C150.732,324.628 148.332,315.128 148.332,304.628C148.332,294.028 150.732,284.453 155.532,275.903C160.332,267.353 166.907,260.628 175.257,255.728C183.607,250.828 192.932,248.378 203.232,248.378C213.532,248.378 222.857,250.828 231.207,255.728C239.557,260.628 246.132,267.353 250.932,275.903C255.732,284.453 258.132,294.028 258.132,304.628C258.132,315.128 255.732,324.628 250.932,333.128C246.132,341.628 239.557,348.303 231.207,353.153C222.857,358.003 213.532,360.428 203.232,360.428ZM203.232,339.128C233.909,339.128 235.932,335.304 235.932,304.628C235.932,273.951 233.909,269.678 203.232,269.678C172.045,269.678 170.532,273.013 170.532,304.628C170.532,335.815 172.045,339.128 203.232,339.128Z" style="fill:url(#_Linear2);fill-rule:nonzero;"/>
            </g>
        </g>
    </g>
    <defs>
        <linearGradient id="_Linear1" x1="0" y1="0" x2="1" y2="0" gradientUnits="userSpaceOnUse" gradientTransform="matrix(6.84828e-15,111.841,-111.841,6.84828e-15,565.929,248.175)"><stop offset="0" style="stop-color:rgb(120,120,120);stop-opacity:1"/><stop offset="1" style="stop-color:black;stop-opacity:1"/></linearGradient>
        <linearGradient id="_Linear2" x1="0" y1="0" x2="1" y2="0" gradientUnits="userSpaceOnUse" gradientTransform="matrix(6.84828e-15,111.841,-111.841,6.84828e-15,565.929,248.175)"><stop offset="0" style="stop-color:rgb(120,120,120);stop-opacity:1"/><stop offset="1" style="stop-color:black;stop-opacity:1"/></linearGradient>
    </defs>
</svg>
